<?xml version="1.0" encoding="UTF-8"?>
<svg version="1.1" xmlns="http://www.w3.org/2000/svg" width="44" height="33">
<path d="M0 0 C1.65 0.33 3.3 0.66 5 1 C5 1.66 5 2.32 5 3 C10.61084738 4.24786516 10.61084738 4.24786516 16 3 C21.14388717 3.04042347 26.04957604 3.50105306 30 7 C32.90088961 10.93890762 34.36066344 14.63881743 34.125 19.5625 C33.27626006 24.56833352 30.78649583 27.73194859 27 31 C23.03022669 33.5749881 19.57964666 32.94854883 15.0859375 32.2890625 C12.34689875 31.90949533 10.50908629 31.74545686 8 33 C2.05293231 33.05947068 -2.443176 32.01434495 -7 28 C-9.60316957 24.18201797 -10.59126698 20.75653113 -10.4296875 16.09765625 C-9.63500121 12.21814227 -7.49280423 9.02913484 -5 6 C-4.34 5.67 -3.68 5.34 -3 5 C-1.9590934 3.35857037 -0.95495674 1.69287785 0 0 Z M-4 11 C-6.35242347 14.20785018 -6.4684209 17.09649252 -6 21 C-3.94946964 24.80812781 -2.25621602 27.71023757 2 29 C4.66709069 29.16750414 4.66709069 29.16750414 7 29 C7.2236068 26.05124322 7.2236068 26.05124322 5.9375 23.875 C4.10556761 18.25707399 5.46194457 12.24531455 8 7 C2.71442634 6.49661203 0.09049661 7.65323004 -4 11 Z M16 7 C16.22816406 7.556875 16.45632812 8.11375 16.69140625 8.6875 C19.25269667 15.48697951 19.40233829 20.04045659 16.9375 27 C16.628125 27.66 16.31875 28.32 16 29 C21.88985175 28.70340715 21.88985175 28.70340715 26.9375 25.875 C29.44741437 22.37633149 30 20.29748201 30 16 C28.75344487 12.39884074 27.64648516 10.52417716 24.6875 8.125 C21.60111507 6.83302491 19.31429232 6.7687703 16 7 Z M11 9 C8.60337325 13.19409682 7.29331956 16.1541913 8 21 C9.88413915 24.32808239 9.88413915 24.32808239 12 27 C15.16951558 23.55487437 15.92105836 20.65755695 16 16 C14.91594086 13.39623178 13.58934042 11.35992972 12 9 C11.67 9 11.34 9 11 9 Z " fill="#F7971D" transform="translate(10,0)"/>
<path d="M0 0 C2.625 0.375 2.625 0.375 5 1 C4.67 2.98 4.34 4.96 4 7 C2.35 6.67 0.7 6.34 -1 6 C-1.625 4.125 -1.625 4.125 -2 2 C-1.34 1.34 -0.68 0.68 0 0 Z " fill="#FBD3A0" transform="translate(10,0)"/>
</svg>
